<mxfile host="65bd71144e">
    <diagram id="vKaiKicjleI0wJUZTJRz" name="Page-1">
        <mxGraphModel dx="1120" dy="802" grid="0" gridSize="10" guides="1" tooltips="1" connect="1" arrows="1" fold="1" page="1" pageScale="1" pageWidth="1169" pageHeight="827" math="0" shadow="0">
            <root>
                <mxCell id="0"/>
                <mxCell id="1" parent="0"/>
                <mxCell id="158" value="" style="rounded=0;whiteSpace=wrap;html=1;strokeWidth=2;" parent="1" vertex="1">
                    <mxGeometry x="395" y="735.06" width="76" height="122.94" as="geometry"/>
                </mxCell>
                <mxCell id="167" value="" style="rounded=0;whiteSpace=wrap;html=1;strokeWidth=1;dashed=1;" parent="1" vertex="1">
                    <mxGeometry x="404.5" y="743" width="61" height="82" as="geometry"/>
                </mxCell>
                <mxCell id="93" value="" style="rounded=0;whiteSpace=wrap;html=1;strokeWidth=2;" parent="1" vertex="1">
                    <mxGeometry x="486" y="489.06" width="76" height="122.94" as="geometry"/>
                </mxCell>
                <mxCell id="145" value="" style="rounded=0;whiteSpace=wrap;html=1;strokeWidth=1;dashed=1;" parent="1" vertex="1">
                    <mxGeometry x="494" y="497" width="61" height="82" as="geometry"/>
                </mxCell>
                <mxCell id="2" value="" style="rounded=0;whiteSpace=wrap;html=1;strokeWidth=2;" parent="1" vertex="1">
                    <mxGeometry x="113" y="91" width="76" height="211" as="geometry"/>
                </mxCell>
                <mxCell id="4" value="" style="rounded=0;whiteSpace=wrap;html=1;strokeWidth=2;" parent="1" vertex="1">
                    <mxGeometry x="199" y="91" width="76" height="211" as="geometry"/>
                </mxCell>
                <mxCell id="5" value="" style="rounded=0;whiteSpace=wrap;html=1;strokeWidth=2;" parent="1" vertex="1">
                    <mxGeometry x="284" y="91" width="76" height="211" as="geometry"/>
                </mxCell>
                <mxCell id="7" value="" style="shape=curlyBracket;whiteSpace=wrap;html=1;rounded=1;labelPosition=left;verticalLabelPosition=middle;align=right;verticalAlign=middle;strokeWidth=2;size=0;rotation=90;" parent="1" vertex="1">
                    <mxGeometry x="226.7" y="-65.06" width="19" height="287.87" as="geometry"/>
                </mxCell>
                <mxCell id="13" value="Région 1" style="text;html=1;align=center;verticalAlign=middle;resizable=0;points=[];autosize=1;strokeColor=none;fillColor=none;fontFamily=Verdana;fontStyle=1" parent="1" vertex="1">
                    <mxGeometry x="199" y="40" width="77" height="26" as="geometry"/>
                </mxCell>
                <mxCell id="14" value="" style="rounded=0;whiteSpace=wrap;html=1;strokeWidth=2;" parent="1" vertex="1">
                    <mxGeometry x="487" y="91" width="76" height="211" as="geometry"/>
                </mxCell>
                <mxCell id="15" value="" style="rounded=0;whiteSpace=wrap;html=1;strokeWidth=2;" parent="1" vertex="1">
                    <mxGeometry x="573" y="91" width="76" height="211" as="geometry"/>
                </mxCell>
                <mxCell id="16" value="" style="rounded=0;whiteSpace=wrap;html=1;strokeWidth=2;" parent="1" vertex="1">
                    <mxGeometry x="658" y="91" width="76" height="211" as="geometry"/>
                </mxCell>
                <mxCell id="17" value="" style="shape=curlyBracket;whiteSpace=wrap;html=1;rounded=1;labelPosition=left;verticalLabelPosition=middle;align=right;verticalAlign=middle;strokeWidth=2;size=0;rotation=90;" parent="1" vertex="1">
                    <mxGeometry x="600.7" y="-65.06" width="19" height="287.87" as="geometry"/>
                </mxCell>
                <mxCell id="18" value="Région 2" style="text;html=1;align=center;verticalAlign=middle;resizable=0;points=[];autosize=1;strokeColor=none;fillColor=none;fontFamily=Verdana;fontStyle=1" parent="1" vertex="1">
                    <mxGeometry x="573" y="40" width="77" height="26" as="geometry"/>
                </mxCell>
                <mxCell id="22" value="" style="ellipse;whiteSpace=wrap;html=1;aspect=fixed;strokeWidth=2;fontFamily=Verdana;fillColor=#FF9933;strokeColor=none;" parent="1" vertex="1">
                    <mxGeometry x="122" y="101" width="15" height="15" as="geometry"/>
                </mxCell>
                <mxCell id="23" value="" style="ellipse;whiteSpace=wrap;html=1;aspect=fixed;strokeWidth=2;fontFamily=Verdana;fillColor=#FF9933;strokeColor=none;" parent="1" vertex="1">
                    <mxGeometry x="143.5" y="101" width="15" height="15" as="geometry"/>
                </mxCell>
                <mxCell id="24" value="" style="ellipse;whiteSpace=wrap;html=1;aspect=fixed;strokeWidth=2;fontFamily=Verdana;fillColor=#FF9933;strokeColor=none;" parent="1" vertex="1">
                    <mxGeometry x="165" y="101" width="15" height="15" as="geometry"/>
                </mxCell>
                <mxCell id="25" value="Availability&lt;br style=&quot;font-size: 11px;&quot;&gt;Zone 1" style="text;html=1;align=center;verticalAlign=middle;resizable=0;points=[];autosize=1;strokeColor=none;fillColor=none;fontFamily=Verdana;fontSize=11;" parent="1" vertex="1">
                    <mxGeometry x="112.5" y="303" width="78" height="38" as="geometry"/>
                </mxCell>
                <mxCell id="26" value="Availability&lt;br style=&quot;font-size: 11px;&quot;&gt;Zone 2" style="text;html=1;align=center;verticalAlign=middle;resizable=0;points=[];autosize=1;strokeColor=none;fillColor=none;fontFamily=Verdana;fontSize=11;" parent="1" vertex="1">
                    <mxGeometry x="198.5" y="303" width="78" height="38" as="geometry"/>
                </mxCell>
                <mxCell id="27" value="Availability&lt;br style=&quot;font-size: 11px;&quot;&gt;Zone 3" style="text;html=1;align=center;verticalAlign=middle;resizable=0;points=[];autosize=1;strokeColor=none;fillColor=none;fontFamily=Verdana;fontSize=11;" parent="1" vertex="1">
                    <mxGeometry x="283" y="303" width="78" height="38" as="geometry"/>
                </mxCell>
                <mxCell id="28" value="Availability&lt;br style=&quot;font-size: 11px;&quot;&gt;Zone 3" style="text;html=1;align=center;verticalAlign=middle;resizable=0;points=[];autosize=1;strokeColor=none;fillColor=none;fontFamily=Verdana;fontSize=11;" parent="1" vertex="1">
                    <mxGeometry x="655.5" y="303" width="78" height="38" as="geometry"/>
                </mxCell>
                <mxCell id="29" value="Availability&lt;br style=&quot;font-size: 11px;&quot;&gt;Zone 2" style="text;html=1;align=center;verticalAlign=middle;resizable=0;points=[];autosize=1;strokeColor=none;fillColor=none;fontFamily=Verdana;fontSize=11;" parent="1" vertex="1">
                    <mxGeometry x="571" y="303" width="78" height="38" as="geometry"/>
                </mxCell>
                <mxCell id="30" value="Availability&lt;br style=&quot;font-size: 11px;&quot;&gt;Zone 1" style="text;html=1;align=center;verticalAlign=middle;resizable=0;points=[];autosize=1;strokeColor=none;fillColor=none;fontFamily=Verdana;fontSize=11;" parent="1" vertex="1">
                    <mxGeometry x="485" y="303" width="78" height="38" as="geometry"/>
                </mxCell>
                <mxCell id="31" value="Paire" style="text;strokeColor=none;align=center;fillColor=none;html=1;verticalAlign=middle;whiteSpace=wrap;rounded=0;strokeWidth=2;fontFamily=Verdana;fontSize=11;fontColor=#33FFFF;" parent="1" vertex="1">
                    <mxGeometry x="393.0033333333335" y="23" width="60" height="30" as="geometry"/>
                </mxCell>
                <mxCell id="32" value="" style="endArrow=classic;startArrow=classic;html=1;fontFamily=Verdana;fontSize=11;fontColor=#33FFFF;strokeColor=#33FFFF;" parent="1" edge="1">
                    <mxGeometry width="50" height="50" relative="1" as="geometry">
                        <mxPoint x="389" y="69" as="sourcePoint"/>
                        <mxPoint x="457" y="68" as="targetPoint"/>
                        <Array as="points">
                            <mxPoint x="423" y="52"/>
                        </Array>
                    </mxGeometry>
                </mxCell>
                <mxCell id="33" value="" style="ellipse;whiteSpace=wrap;html=1;aspect=fixed;strokeWidth=2;fontFamily=Verdana;fillColor=#00FF44;strokeColor=none;" parent="1" vertex="1">
                    <mxGeometry x="122" y="131" width="15" height="15" as="geometry"/>
                </mxCell>
                <mxCell id="34" value="" style="ellipse;whiteSpace=wrap;html=1;aspect=fixed;strokeWidth=2;fontFamily=Verdana;fillColor=#00FF44;strokeColor=none;" parent="1" vertex="1">
                    <mxGeometry x="210" y="131" width="15" height="15" as="geometry"/>
                </mxCell>
                <mxCell id="35" value="" style="ellipse;whiteSpace=wrap;html=1;aspect=fixed;strokeWidth=2;fontFamily=Verdana;fillColor=#00FF44;strokeColor=none;" parent="1" vertex="1">
                    <mxGeometry x="294" y="131" width="15" height="15" as="geometry"/>
                </mxCell>
                <mxCell id="36" value="LRS" style="text;html=1;align=center;verticalAlign=middle;resizable=0;points=[];autosize=1;strokeColor=none;fillColor=none;fontSize=11;fontFamily=Verdana;fontColor=#FF9933;fontStyle=1" parent="1" vertex="1">
                    <mxGeometry x="29" y="94" width="41" height="25" as="geometry"/>
                </mxCell>
                <mxCell id="37" value="ZRS" style="text;html=1;align=center;verticalAlign=middle;resizable=0;points=[];autosize=1;strokeColor=none;fillColor=none;fontSize=11;fontFamily=Verdana;fontColor=#00FF44;fontStyle=1" parent="1" vertex="1">
                    <mxGeometry x="29" y="125" width="42" height="25" as="geometry"/>
                </mxCell>
                <mxCell id="38" value="" style="ellipse;whiteSpace=wrap;html=1;aspect=fixed;strokeWidth=2;fontFamily=Verdana;fillColor=#FF66B3;strokeColor=none;" parent="1" vertex="1">
                    <mxGeometry x="165" y="161" width="15" height="15" as="geometry"/>
                </mxCell>
                <mxCell id="39" value="" style="ellipse;whiteSpace=wrap;html=1;aspect=fixed;strokeWidth=2;fontFamily=Verdana;fillColor=#FF66B3;strokeColor=none;" parent="1" vertex="1">
                    <mxGeometry x="143.5" y="161" width="15" height="15" as="geometry"/>
                </mxCell>
                <mxCell id="40" value="" style="ellipse;whiteSpace=wrap;html=1;aspect=fixed;strokeWidth=2;fontFamily=Verdana;fillColor=#FF66B3;strokeColor=none;" parent="1" vertex="1">
                    <mxGeometry x="122" y="161" width="15" height="15" as="geometry"/>
                </mxCell>
                <mxCell id="41" value="" style="ellipse;whiteSpace=wrap;html=1;aspect=fixed;strokeWidth=2;fontFamily=Verdana;fillColor=#FF66B3;strokeColor=none;" parent="1" vertex="1">
                    <mxGeometry x="539" y="161" width="15" height="15" as="geometry"/>
                </mxCell>
                <mxCell id="42" value="" style="ellipse;whiteSpace=wrap;html=1;aspect=fixed;strokeWidth=2;fontFamily=Verdana;fillColor=#FF66B3;strokeColor=none;" parent="1" vertex="1">
                    <mxGeometry x="517.5" y="161" width="15" height="15" as="geometry"/>
                </mxCell>
                <mxCell id="43" value="" style="ellipse;whiteSpace=wrap;html=1;aspect=fixed;strokeWidth=2;fontFamily=Verdana;fillColor=#FF66B3;strokeColor=none;" parent="1" vertex="1">
                    <mxGeometry x="496" y="161" width="15" height="15" as="geometry"/>
                </mxCell>
                <mxCell id="44" value="GRS" style="text;html=1;align=center;verticalAlign=middle;resizable=0;points=[];autosize=1;strokeColor=none;fillColor=none;fontSize=11;fontFamily=Verdana;fontColor=#FF66B3;fontStyle=1" parent="1" vertex="1">
                    <mxGeometry x="29" y="156" width="43" height="25" as="geometry"/>
                </mxCell>
                <mxCell id="45" value="" style="ellipse;whiteSpace=wrap;html=1;aspect=fixed;strokeWidth=2;fontFamily=Verdana;fillColor=#6600CC;strokeColor=none;" parent="1" vertex="1">
                    <mxGeometry x="122" y="191" width="15" height="15" as="geometry"/>
                </mxCell>
                <mxCell id="46" value="" style="ellipse;whiteSpace=wrap;html=1;aspect=fixed;strokeWidth=2;fontFamily=Verdana;fillColor=#6600CC;strokeColor=none;" parent="1" vertex="1">
                    <mxGeometry x="210" y="191" width="15" height="15" as="geometry"/>
                </mxCell>
                <mxCell id="47" value="" style="ellipse;whiteSpace=wrap;html=1;aspect=fixed;strokeWidth=2;fontFamily=Verdana;fillColor=#6600CC;strokeColor=none;" parent="1" vertex="1">
                    <mxGeometry x="294" y="191" width="15" height="15" as="geometry"/>
                </mxCell>
                <mxCell id="48" value="" style="ellipse;whiteSpace=wrap;html=1;aspect=fixed;strokeWidth=2;fontFamily=Verdana;fillColor=#6600CC;strokeColor=none;" parent="1" vertex="1">
                    <mxGeometry x="496" y="189" width="15" height="15" as="geometry"/>
                </mxCell>
                <mxCell id="49" value="" style="ellipse;whiteSpace=wrap;html=1;aspect=fixed;strokeWidth=2;fontFamily=Verdana;fillColor=#6600CC;strokeColor=none;" parent="1" vertex="1">
                    <mxGeometry x="517.5" y="189" width="15" height="15" as="geometry"/>
                </mxCell>
                <mxCell id="50" value="" style="ellipse;whiteSpace=wrap;html=1;aspect=fixed;strokeWidth=2;fontFamily=Verdana;fillColor=#6600CC;strokeColor=none;" parent="1" vertex="1">
                    <mxGeometry x="539" y="189" width="15" height="15" as="geometry"/>
                </mxCell>
                <mxCell id="51" value="GZRS" style="text;html=1;align=center;verticalAlign=middle;resizable=0;points=[];autosize=1;strokeColor=none;fillColor=none;fontSize=11;fontFamily=Verdana;fontColor=#6600CC;fontStyle=1" parent="1" vertex="1">
                    <mxGeometry x="29" y="185" width="51" height="25" as="geometry"/>
                </mxCell>
                <mxCell id="52" value="" style="rounded=0;whiteSpace=wrap;html=1;strokeWidth=2;" parent="1" vertex="1">
                    <mxGeometry x="128" y="489.06" width="76" height="122.94" as="geometry"/>
                </mxCell>
                <mxCell id="53" value="" style="rounded=0;whiteSpace=wrap;html=1;strokeWidth=2;" parent="1" vertex="1">
                    <mxGeometry x="214" y="489.06" width="76" height="122.94" as="geometry"/>
                </mxCell>
                <mxCell id="54" value="" style="rounded=0;whiteSpace=wrap;html=1;strokeWidth=2;" parent="1" vertex="1">
                    <mxGeometry x="299" y="489.06" width="76" height="122.94" as="geometry"/>
                </mxCell>
                <mxCell id="55" value="" style="shape=curlyBracket;whiteSpace=wrap;html=1;rounded=1;labelPosition=left;verticalLabelPosition=middle;align=right;verticalAlign=middle;strokeWidth=2;size=0;rotation=90;" parent="1" vertex="1">
                    <mxGeometry x="241.7" y="333" width="19" height="287.87" as="geometry"/>
                </mxCell>
                <mxCell id="56" value="Région 1" style="text;html=1;align=center;verticalAlign=middle;resizable=0;points=[];autosize=1;strokeColor=none;fillColor=none;fontFamily=Verdana;fontStyle=1" parent="1" vertex="1">
                    <mxGeometry x="214" y="438.06" width="77" height="26" as="geometry"/>
                </mxCell>
                <mxCell id="65" value="Availability&lt;br style=&quot;font-size: 11px;&quot;&gt;Zone 1" style="text;html=1;align=center;verticalAlign=middle;resizable=0;points=[];autosize=1;strokeColor=none;fillColor=none;fontFamily=Verdana;fontSize=11;" parent="1" vertex="1">
                    <mxGeometry x="128.25" y="619" width="78" height="38" as="geometry"/>
                </mxCell>
                <mxCell id="66" value="Availability&lt;br style=&quot;font-size: 11px;&quot;&gt;Zone 2" style="text;html=1;align=center;verticalAlign=middle;resizable=0;points=[];autosize=1;strokeColor=none;fillColor=none;fontFamily=Verdana;fontSize=11;" parent="1" vertex="1">
                    <mxGeometry x="214.25" y="619" width="78" height="38" as="geometry"/>
                </mxCell>
                <mxCell id="67" value="Availability&lt;br style=&quot;font-size: 11px;&quot;&gt;Zone 3" style="text;html=1;align=center;verticalAlign=middle;resizable=0;points=[];autosize=1;strokeColor=none;fillColor=none;fontFamily=Verdana;fontSize=11;" parent="1" vertex="1">
                    <mxGeometry x="298.75" y="619" width="78" height="38" as="geometry"/>
                </mxCell>
                <mxCell id="94" value="" style="rounded=0;whiteSpace=wrap;html=1;strokeWidth=2;" parent="1" vertex="1">
                    <mxGeometry x="572" y="489.06" width="76" height="122.94" as="geometry"/>
                </mxCell>
                <mxCell id="95" value="" style="rounded=0;whiteSpace=wrap;html=1;strokeWidth=2;" parent="1" vertex="1">
                    <mxGeometry x="657" y="489.06" width="76" height="122.94" as="geometry"/>
                </mxCell>
                <mxCell id="96" value="" style="shape=curlyBracket;whiteSpace=wrap;html=1;rounded=1;labelPosition=left;verticalLabelPosition=middle;align=right;verticalAlign=middle;strokeWidth=2;size=0;rotation=90;" parent="1" vertex="1">
                    <mxGeometry x="599.7" y="333" width="19" height="287.87" as="geometry"/>
                </mxCell>
                <mxCell id="97" value="Région 2" style="text;html=1;align=center;verticalAlign=middle;resizable=0;points=[];autosize=1;strokeColor=none;fillColor=none;fontFamily=Verdana;fontStyle=1" parent="1" vertex="1">
                    <mxGeometry x="572" y="438.06" width="77" height="26" as="geometry"/>
                </mxCell>
                <mxCell id="98" value="Availability&lt;br style=&quot;font-size: 11px;&quot;&gt;Zone 1" style="text;html=1;align=center;verticalAlign=middle;resizable=0;points=[];autosize=1;strokeColor=none;fillColor=none;fontFamily=Verdana;fontSize=11;" parent="1" vertex="1">
                    <mxGeometry x="486.25" y="619" width="78" height="38" as="geometry"/>
                </mxCell>
                <mxCell id="99" value="Availability&lt;br style=&quot;font-size: 11px;&quot;&gt;Zone 2" style="text;html=1;align=center;verticalAlign=middle;resizable=0;points=[];autosize=1;strokeColor=none;fillColor=none;fontFamily=Verdana;fontSize=11;" parent="1" vertex="1">
                    <mxGeometry x="572.25" y="619" width="78" height="38" as="geometry"/>
                </mxCell>
                <mxCell id="100" value="Availability&lt;br style=&quot;font-size: 11px;&quot;&gt;Zone 3" style="text;html=1;align=center;verticalAlign=middle;resizable=0;points=[];autosize=1;strokeColor=none;fillColor=none;fontFamily=Verdana;fontSize=11;" parent="1" vertex="1">
                    <mxGeometry x="656.75" y="619" width="78" height="38" as="geometry"/>
                </mxCell>
                <mxCell id="141" value="" style="rounded=0;whiteSpace=wrap;html=1;strokeWidth=1;dashed=1;" parent="1" vertex="1">
                    <mxGeometry x="136" y="497" width="61" height="82" as="geometry"/>
                </mxCell>
                <mxCell id="142" value="Storage&lt;br style=&quot;font-size: 10px;&quot;&gt;Account 1" style="text;html=1;align=center;verticalAlign=middle;resizable=0;points=[];autosize=1;strokeColor=none;fillColor=none;fontFamily=Verdana;fontSize=10;" parent="1" vertex="1">
                    <mxGeometry x="132" y="575" width="68" height="36" as="geometry"/>
                </mxCell>
                <mxCell id="154" style="edgeStyle=none;html=1;exitX=1;exitY=0.5;exitDx=0;exitDy=0;entryX=0;entryY=0.5;entryDx=0;entryDy=0;strokeColor=#FF3333;fontFamily=Verdana;fontSize=10;fontColor=#6600CC;dashed=1;dashPattern=1 1;" parent="1" source="143" target="147" edge="1">
                    <mxGeometry relative="1" as="geometry"/>
                </mxCell>
                <mxCell id="143" value="C1" style="rounded=0;whiteSpace=wrap;html=1;strokeWidth=1;fillColor=#dae8fc;strokeColor=#6c8ebf;fontSize=10;" parent="1" vertex="1">
                    <mxGeometry x="151.5" y="506" width="30" height="17" as="geometry"/>
                </mxCell>
                <mxCell id="144" value="C2" style="rounded=0;whiteSpace=wrap;html=1;strokeWidth=1;fillColor=#dae8fc;strokeColor=#6c8ebf;fontSize=10;" parent="1" vertex="1">
                    <mxGeometry x="151.5" y="529.5" width="30" height="17" as="geometry"/>
                </mxCell>
                <mxCell id="146" value="Storage&lt;br style=&quot;font-size: 10px;&quot;&gt;Account 2" style="text;html=1;align=center;verticalAlign=middle;resizable=0;points=[];autosize=1;strokeColor=none;fillColor=none;fontFamily=Verdana;fontSize=10;" parent="1" vertex="1">
                    <mxGeometry x="491" y="575" width="68" height="36" as="geometry"/>
                </mxCell>
                <mxCell id="147" value="CA" style="rounded=0;whiteSpace=wrap;html=1;strokeWidth=1;fillColor=#fff2cc;strokeColor=#d6b656;fontSize=10;" parent="1" vertex="1">
                    <mxGeometry x="509.5" y="506" width="30" height="17" as="geometry"/>
                </mxCell>
                <mxCell id="155" style="edgeStyle=none;html=1;exitX=1;exitY=0.5;exitDx=0;exitDy=0;entryX=0.5;entryY=0;entryDx=0;entryDy=0;strokeColor=#FF3333;fontFamily=Verdana;fontSize=10;fontColor=#6600CC;dashed=1;dashPattern=1 1;" parent="1" target="169" edge="1">
                    <mxGeometry relative="1" as="geometry">
                        <mxPoint x="181.5000000000001" y="537.66" as="sourcePoint"/>
                        <mxPoint x="597" y="534.5" as="targetPoint"/>
                    </mxGeometry>
                </mxCell>
                <mxCell id="156" value="" style="rounded=0;whiteSpace=wrap;html=1;strokeWidth=2;" parent="1" vertex="1">
                    <mxGeometry x="309" y="735.06" width="76" height="122.94" as="geometry"/>
                </mxCell>
                <mxCell id="159" value="" style="rounded=0;whiteSpace=wrap;html=1;strokeWidth=2;" parent="1" vertex="1">
                    <mxGeometry x="480" y="735.06" width="76" height="122.94" as="geometry"/>
                </mxCell>
                <mxCell id="160" value="" style="shape=curlyBracket;whiteSpace=wrap;html=1;rounded=1;labelPosition=left;verticalLabelPosition=middle;align=right;verticalAlign=middle;strokeWidth=2;size=0;rotation=90;" parent="1" vertex="1">
                    <mxGeometry x="422.70000000000005" y="579" width="19" height="287.87" as="geometry"/>
                </mxCell>
                <object label="Région 3" hedietLinkedDataV1_path="../Redundancy" hedietLinkedDataV1_start_col_x-num="0" hedietLinkedDataV1_start_line_x-num="0" hedietLinkedDataV1_end_col_x-num="0" hedietLinkedDataV1_end_line_x-num="0" id="161">
                    <mxCell style="text;html=1;align=center;verticalAlign=middle;resizable=0;points=[];autosize=1;strokeColor=none;fillColor=none;fontFamily=Verdana;fontStyle=1" parent="1" vertex="1">
                        <mxGeometry x="395" y="684.06" width="77" height="26" as="geometry"/>
                    </mxCell>
                </object>
                <mxCell id="162" value="Availability&lt;br style=&quot;font-size: 11px;&quot;&gt;Zone 1" style="text;html=1;align=center;verticalAlign=middle;resizable=0;points=[];autosize=1;strokeColor=none;fillColor=none;fontFamily=Verdana;fontSize=11;" parent="1" vertex="1">
                    <mxGeometry x="309.25" y="865" width="78" height="38" as="geometry"/>
                </mxCell>
                <mxCell id="163" value="Availability&lt;br style=&quot;font-size: 11px;&quot;&gt;Zone 2" style="text;html=1;align=center;verticalAlign=middle;resizable=0;points=[];autosize=1;strokeColor=none;fillColor=none;fontFamily=Verdana;fontSize=11;" parent="1" vertex="1">
                    <mxGeometry x="395.25" y="865" width="78" height="38" as="geometry"/>
                </mxCell>
                <mxCell id="164" value="Availability&lt;br style=&quot;font-size: 11px;&quot;&gt;Zone 3" style="text;html=1;align=center;verticalAlign=middle;resizable=0;points=[];autosize=1;strokeColor=none;fillColor=none;fontFamily=Verdana;fontSize=11;" parent="1" vertex="1">
                    <mxGeometry x="479.75" y="865" width="78" height="38" as="geometry"/>
                </mxCell>
                <mxCell id="168" value="Storage&lt;br style=&quot;font-size: 10px;&quot;&gt;Account 3" style="text;html=1;align=center;verticalAlign=middle;resizable=0;points=[];autosize=1;strokeColor=none;fillColor=none;fontFamily=Verdana;fontSize=10;" parent="1" vertex="1">
                    <mxGeometry x="400.5" y="821" width="68" height="36" as="geometry"/>
                </mxCell>
                <mxCell id="169" value="CB" style="rounded=0;whiteSpace=wrap;html=1;strokeWidth=1;fillColor=#d5e8d4;strokeColor=#82b366;fontSize=10;" parent="1" vertex="1">
                    <mxGeometry x="420" y="772" width="30" height="17" as="geometry"/>
                </mxCell>
            </root>
        </mxGraphModel>
    </diagram>
    <diagram id="MPRwZ3sNebxIb5XJbIEU" name="Page-2">
        <mxGraphModel dx="933" dy="668" grid="0" gridSize="10" guides="1" tooltips="1" connect="1" arrows="1" fold="1" page="1" pageScale="1" pageWidth="1169" pageHeight="827" math="0" shadow="0">
            <root>
                <mxCell id="0"/>
                <mxCell id="1" parent="0"/>
                <mxCell id="94fjLgLvNVMkCRa8hFvn-9" style="edgeStyle=orthogonalEdgeStyle;html=1;endArrow=none;endFill=0;" edge="1" parent="1" source="94fjLgLvNVMkCRa8hFvn-3">
                    <mxGeometry relative="1" as="geometry">
                        <mxPoint x="400" y="197" as="targetPoint"/>
                        <Array as="points">
                            <mxPoint x="500" y="178"/>
                            <mxPoint x="400" y="178"/>
                        </Array>
                    </mxGeometry>
                </mxCell>
                <mxCell id="94fjLgLvNVMkCRa8hFvn-10" style="edgeStyle=orthogonalEdgeStyle;html=1;endArrow=none;endFill=0;" edge="1" parent="1" source="94fjLgLvNVMkCRa8hFvn-3">
                    <mxGeometry relative="1" as="geometry">
                        <mxPoint x="600" y="196" as="targetPoint"/>
                        <Array as="points">
                            <mxPoint x="500" y="178"/>
                            <mxPoint x="600" y="178"/>
                        </Array>
                    </mxGeometry>
                </mxCell>
                <mxCell id="94fjLgLvNVMkCRa8hFvn-3" value="" style="sketch=0;aspect=fixed;html=1;points=[];align=center;image;fontSize=12;image=img/lib/mscae/Management_Groups.svg;" vertex="1" parent="1">
                    <mxGeometry x="475" y="108" width="50" height="40" as="geometry"/>
                </mxCell>
                <mxCell id="94fjLgLvNVMkCRa8hFvn-13" style="edgeStyle=orthogonalEdgeStyle;html=1;endArrow=none;endFill=0;" edge="1" parent="1">
                    <mxGeometry relative="1" as="geometry">
                        <mxPoint x="447.6" y="275" as="targetPoint"/>
                        <mxPoint x="400" y="227" as="sourcePoint"/>
                        <Array as="points">
                            <mxPoint x="400" y="240"/>
                            <mxPoint x="448" y="240"/>
                        </Array>
                    </mxGeometry>
                </mxCell>
                <mxCell id="94fjLgLvNVMkCRa8hFvn-14" style="edgeStyle=orthogonalEdgeStyle;html=1;endArrow=none;endFill=0;" edge="1" parent="1">
                    <mxGeometry relative="1" as="geometry">
                        <mxPoint x="350.79999999999995" y="271.79999999999995" as="targetPoint"/>
                        <mxPoint x="400" y="227" as="sourcePoint"/>
                        <Array as="points">
                            <mxPoint x="400" y="240"/>
                            <mxPoint x="351" y="240"/>
                        </Array>
                    </mxGeometry>
                </mxCell>
                <mxCell id="94fjLgLvNVMkCRa8hFvn-4" value="" style="aspect=fixed;html=1;points=[];align=center;image;fontSize=12;image=img/lib/azure2/general/Subscriptions.svg;" vertex="1" parent="1">
                    <mxGeometry x="392.58" y="199" width="14.25" height="23" as="geometry"/>
                </mxCell>
                <mxCell id="94fjLgLvNVMkCRa8hFvn-11" style="edgeStyle=orthogonalEdgeStyle;html=1;endArrow=none;endFill=0;" edge="1" parent="1">
                    <mxGeometry relative="1" as="geometry">
                        <mxPoint x="599.7049999999999" y="272.4761904761905" as="targetPoint"/>
                        <mxPoint x="600" y="228" as="sourcePoint"/>
                        <Array as="points">
                            <mxPoint x="600" y="229"/>
                            <mxPoint x="600" y="251"/>
                            <mxPoint x="600" y="251"/>
                        </Array>
                    </mxGeometry>
                </mxCell>
                <mxCell id="94fjLgLvNVMkCRa8hFvn-24" style="edgeStyle=orthogonalEdgeStyle;html=1;endArrow=none;endFill=0;" edge="1" parent="1" source="94fjLgLvNVMkCRa8hFvn-6">
                    <mxGeometry relative="1" as="geometry">
                        <mxPoint x="351.75" y="333.60893854748605" as="targetPoint"/>
                    </mxGeometry>
                </mxCell>
                <mxCell id="94fjLgLvNVMkCRa8hFvn-6" value="" style="sketch=0;aspect=fixed;html=1;points=[];align=center;image;fontSize=12;image=img/lib/mscae/ResourceGroup.svg;" vertex="1" parent="1">
                    <mxGeometry x="333" y="284" width="37.5" height="30" as="geometry"/>
                </mxCell>
                <mxCell id="94fjLgLvNVMkCRa8hFvn-7" value="" style="sketch=0;aspect=fixed;html=1;points=[];align=center;image;fontSize=12;image=img/lib/mscae/ResourceGroup.svg;" vertex="1" parent="1">
                    <mxGeometry x="428.90999999999997" y="284" width="37.5" height="30" as="geometry"/>
                </mxCell>
                <mxCell id="94fjLgLvNVMkCRa8hFvn-8" value="" style="sketch=0;aspect=fixed;html=1;points=[];align=center;image;fontSize=12;image=img/lib/mscae/ResourceGroup.svg;" vertex="1" parent="1">
                    <mxGeometry x="580.9599999999999" y="284" width="37.5" height="30" as="geometry"/>
                </mxCell>
                <mxCell id="94fjLgLvNVMkCRa8hFvn-15" value="" style="aspect=fixed;html=1;points=[];align=center;image;fontSize=12;image=img/lib/azure2/compute/Virtual_Machine.svg;" vertex="1" parent="1">
                    <mxGeometry x="296" y="356.49" width="18.88" height="17.51" as="geometry"/>
                </mxCell>
                <mxCell id="94fjLgLvNVMkCRa8hFvn-17" value="" style="aspect=fixed;html=1;points=[];align=center;image;fontSize=12;image=img/lib/azure2/networking/Virtual_Networks.svg;" vertex="1" parent="1">
                    <mxGeometry x="328" y="356.49" width="29.83" height="17.81" as="geometry"/>
                </mxCell>
                <mxCell id="94fjLgLvNVMkCRa8hFvn-18" value="" style="aspect=fixed;html=1;points=[];align=center;image;fontSize=12;image=img/lib/azure2/storage/Azure_Fileshare.svg;" vertex="1" parent="1">
                    <mxGeometry x="369" y="349.5" width="25" height="25" as="geometry"/>
                </mxCell>
                <mxCell id="94fjLgLvNVMkCRa8hFvn-19" value="" style="aspect=fixed;html=1;points=[];align=center;image;fontSize=12;image=img/lib/azure2/databases/SQL_Database.svg;" vertex="1" parent="1">
                    <mxGeometry x="441" y="352" width="16.5" height="22" as="geometry"/>
                </mxCell>
                <mxCell id="94fjLgLvNVMkCRa8hFvn-20" value="" style="aspect=fixed;html=1;points=[];align=center;image;fontSize=12;image=img/lib/azure2/other/Grafana.svg;" vertex="1" parent="1">
                    <mxGeometry x="587" y="352.23" width="26.44" height="20.54" as="geometry"/>
                </mxCell>
                <mxCell id="94fjLgLvNVMkCRa8hFvn-21" style="edgeStyle=orthogonalEdgeStyle;html=1;endArrow=none;endFill=0;" edge="1" parent="1">
                    <mxGeometry relative="1" as="geometry">
                        <mxPoint x="600" y="347" as="targetPoint"/>
                        <mxPoint x="599.8" y="322" as="sourcePoint"/>
                        <Array as="points">
                            <mxPoint x="600" y="323"/>
                            <mxPoint x="600" y="323"/>
                            <mxPoint x="600" y="347"/>
                        </Array>
                    </mxGeometry>
                </mxCell>
                <mxCell id="94fjLgLvNVMkCRa8hFvn-22" style="edgeStyle=orthogonalEdgeStyle;html=1;endArrow=none;endFill=0;" edge="1" parent="1">
                    <mxGeometry relative="1" as="geometry">
                        <mxPoint x="448.2" y="347" as="targetPoint"/>
                        <mxPoint x="447.99999999999983" y="322" as="sourcePoint"/>
                        <Array as="points">
                            <mxPoint x="448.2" y="323"/>
                            <mxPoint x="448.2" y="323"/>
                            <mxPoint x="448.2" y="347"/>
                        </Array>
                    </mxGeometry>
                </mxCell>
                <mxCell id="94fjLgLvNVMkCRa8hFvn-25" style="edgeStyle=orthogonalEdgeStyle;html=1;endArrow=none;endFill=0;exitX=0.619;exitY=0.034;exitDx=0;exitDy=0;exitPerimeter=0;" edge="1" parent="1" source="94fjLgLvNVMkCRa8hFvn-18">
                    <mxGeometry relative="1" as="geometry">
                        <mxPoint x="306" y="352" as="targetPoint"/>
                        <mxPoint x="362.75" y="334" as="sourcePoint"/>
                        <Array as="points">
                            <mxPoint x="385" y="334"/>
                            <mxPoint x="306" y="334"/>
                        </Array>
                    </mxGeometry>
                </mxCell>
                <mxCell id="94fjLgLvNVMkCRa8hFvn-26" style="edgeStyle=orthogonalEdgeStyle;html=1;endArrow=none;endFill=0;" edge="1" parent="1">
                    <mxGeometry relative="1" as="geometry">
                        <mxPoint x="344" y="354" as="targetPoint"/>
                        <mxPoint x="344" y="334" as="sourcePoint"/>
                        <Array as="points">
                            <mxPoint x="344" y="345"/>
                            <mxPoint x="344" y="345"/>
                        </Array>
                    </mxGeometry>
                </mxCell>
                <mxCell id="94fjLgLvNVMkCRa8hFvn-27" value="" style="aspect=fixed;html=1;points=[];align=center;image;fontSize=12;image=img/lib/azure2/general/Subscriptions.svg;" vertex="1" parent="1">
                    <mxGeometry x="593" y="199" width="14.25" height="23" as="geometry"/>
                </mxCell>
            </root>
        </mxGraphModel>
    </diagram>
</mxfile>